# xmcd
#
# Track frame offsets:
# 150
# 11122
# 29354
# 43373
# 59536
# 77027
# 91748
# 103659
# 121426
# 139181
# 150874
# 163550
#
# Disc length: 2368 seconds
#
# Revision: 0
# Processed by: cddbd v1.5PL3 Copyright (c) Steve Scherf et al.
# Submitted via: Audion 3.0.2 (http://www.panic.com/audion/)
#
DISCID=96093e0c
DTITLE=Wisely - Go!
DYEAR=1900
DGENRE=
TTITLE0=Go!
TTITLE1=Bygones
TTITLE2=Raincan
TTITLE3=She Said Yeah
TTITLE4=Vagabond
TTITLE5=Home By Friday
TTITLE6=Please Don't Talk About Me (When I'm Gone)
TTITLE7=Working Girl
TTITLE8=Doorbells
TTITLE9=Party Dress
TTITLE10=Loander My Guitar
TTITLE11=Flowers For The Lady
EXTD=
EXTT0=
EXTT1=
EXTT2=
EXTT3=
EXTT4=
EXTT5=
EXTT6=
EXTT7=
EXTT8=
EXTT9=
EXTT10=
EXTT11=
PLAYORDER=
